PathFileType	4	(X/Y/Z)	 2.2Hzhigh3min.trc
DataRate	CameraRate	NumFrames	NumMarkers	Units	OrigDataRate	OrigDataStartFrame	OrigNumFrames
200	200	8	35	m	200	126	1000
Frame#	Time	C7			LSH			RSH			MAN			RASI			LASI			HIPR			HIPL			RPSI			LPSI			COX			RTHI1			RTHI2			RTHI3			RTHI4			RSHA1			RSHA2			RSHA3			RSHA4			RHEEL			RMET5			RMET1			RTOE			LTHI1			LTHI2			LTHI3			LTHI4			LSHA1			LSHA2			LSHA3			LSHA4			LHEEL			LMET5			LMET1			LTOE			
		X1	Y1	Z1	X2	Y2	Z2	X3	Y3	Z3	X4	Y4	Z4	X5	Y5	Z5	X6	Y6	Z6	X7	Y7	Z7	X8	Y8	Z8	X9	Y9	Z9	X10	Y10	Z10	X11	Y11	Z11	X12	Y12	Z12	X13	Y13	Z13	X14	Y14	Z14	X15	Y15	Z15	X16	Y16	Z16	X17	Y17	Z17	X18	Y18	Z18	X19	Y19	Z19	X20	Y20	Z20	X21	Y21	Z21	X22	Y22	Z22	X23	Y23	Z23	X24	Y24	Z24	X25	Y25	Z25	X26	Y26	Z26	X27	Y27	Z27	X28	Y28	Z28	X29	Y29	Z29	X30	Y30	Z30	X31	Y31	Z31	X32	Y32	Z32	X33	Y33	Z33	X34	Y34	Z34	X35	Y35	Z35	
126	0.6300	-0.337584	1.501822	-0.557200	-0.281213	1.463172	-0.734514	-0.274381	1.475396	-0.390575	-0.227580	1.455517	-0.563985	-0.173102	1.073281	-0.481400	-0.178662	1.076883	-0.655048	-0.234654	1.122854	-0.428412	-0.234845	1.130282	-0.686150	-0.315618	1.101259	-0.490347	-0.319111	1.106420	-0.604975	-0.323946	1.110928	-0.548300	-0.248420	0.902202	-0.382147	-0.248220	0.840394	-0.376957	-0.177077	0.846610	-0.396006	-0.185869	0.906106	-0.398834	-0.302448	0.455498	-0.345367	-0.316656	0.414722	-0.347130	-0.258036	0.401721	-0.356883	-0.248732	0.441084	-0.358799	-0.383622	0.230198	-0.397292	-0.281348	0.106335	-0.340079	-0.249877	0.102437	-0.405559	-0.235169	0.081409	-0.397728	-0.289128	0.857182	-0.724990	-0.282732	0.797997	-0.726719	-0.213153	0.806760	-0.744344	-0.226997	0.866496	-0.742338	-0.323056	0.425680	-0.746613	-0.331917	0.386356	-0.742703	-0.270540	0.378403	-0.753291	-0.269950	0.422092	-0.756245	-0.365162	0.224865	-0.695851	-0.259076	0.110407	-0.766767	-0.216953	0.109213	-0.711797	-0.203403	0.088545	-0.720766	
127	0.6350	-0.337388	1.501368	-0.557099	-0.281188	1.462606	-0.734466	-0.274554	1.474695	-0.390428	-0.227455	1.454983	-0.563866	-0.173203	1.072724	-0.481086	-0.178735	1.076411	-0.654838	-0.234975	1.122101	-0.428391	-0.234885	1.129782	-0.686057	-0.316004	1.100210	-0.490373	-0.319257	1.105495	-0.604941	-0.324160	1.109888	-0.548291	-0.248230	0.901491	-0.382036	-0.247952	0.839663	-0.376995	-0.176884	0.845992	-0.396274	-0.185735	0.905506	-0.398937	-0.302318	0.455003	-0.345796	-0.316668	0.414266	-0.347592	-0.258089	0.401076	-0.357410	-0.248657	0.440419	-0.359339	-0.384393	0.229564	-0.397896	-0.281360	0.106442	-0.340399	-0.249824	0.102590	-0.405870	-0.234910	0.081797	-0.397932	-0.288560	0.856578	-0.725073	-0.282167	0.797405	-0.726716	-0.212490	0.806141	-0.743946	-0.226335	0.865877	-0.742082	-0.322175	0.425099	-0.746633	-0.331063	0.385783	-0.742741	-0.269632	0.377827	-0.753001	-0.269024	0.421517	-0.755986	-0.364637	0.223786	-0.695889	-0.257042	0.110806	-0.767011	-0.215064	0.109735	-0.711924	-0.201171	0.089366	-0.720989	
128	0.6400	-0.337186	1.500662	-0.557008	-0.281149	1.461813	-0.734423	-0.274771	1.473749	-0.390293	-0.227322	1.454208	-0.563743	-0.173302	1.071894	-0.480799	-0.178791	1.075667	-0.654618	-0.235280	1.121122	-0.428366	-0.234891	1.129031	-0.685961	-0.316363	1.098975	-0.490394	-0.319413	1.104399	-0.604924	-0.324379	1.108675	-0.548282	-0.248080	0.900500	-0.381972	-0.247705	0.838647	-0.377076	-0.176707	0.845112	-0.396545	-0.185641	0.904637	-0.399047	-0.302158	0.454249	-0.346220	-0.316652	0.413546	-0.348054	-0.258121	0.400179	-0.357953	-0.248554	0.439498	-0.359875	-0.385172	0.228665	-0.398482	-0.281289	0.106289	-0.340769	-0.249699	0.102528	-0.406246	-0.234578	0.081979	-0.398214	-0.287990	0.855642	-0.725166	-0.281578	0.796473	-0.726719	-0.211803	0.805227	-0.743536	-0.225679	0.864949	-0.741815	-0.321290	0.424259	-0.746620	-0.330195	0.384960	-0.742747	-0.268711	0.376993	-0.752691	-0.268089	0.420701	-0.755716	-0.364064	0.222522	-0.695908	-0.255090	0.110859	-0.767116	-0.213264	0.109925	-0.711915	-0.199050	0.089848	-0.721056	
129	0.6450	-0.336974	1.499707	-0.556928	-0.281096	1.460794	-0.734382	-0.275012	1.472557	-0.390179	-0.227180	1.453189	-0.563618	-0.173403	1.070795	-0.480543	-0.178836	1.074653	-0.654393	-0.235524	1.119946	-0.428349	-0.234875	1.128026	-0.685863	-0.316693	1.097560	-0.490397	-0.319579	1.103145	-0.604924	-0.324604	1.107304	-0.548270	-0.247969	0.899226	-0.381952	-0.247482	0.837354	-0.377195	-0.176546	0.843975	-0.396816	-0.185580	0.903505	-0.399170	-0.301962	0.453241	-0.346619	-0.316599	0.412579	-0.348491	-0.258126	0.399026	-0.358519	-0.248428	0.438309	-0.360452	-0.385937	0.227490	-0.399045	-0.281134	0.105887	-0.341194	-0.249521	0.102242	-0.406691	-0.234191	0.081943	-0.398572	-0.287425	0.854388	-0.725274	-0.280961	0.795228	-0.726732	-0.211096	0.804021	-0.743121	-0.225035	0.863726	-0.741542	-0.320397	0.423167	-0.746577	-0.329310	0.383885	-0.742715	-0.267785	0.375922	-0.752369	-0.267150	0.419624	-0.755426	-0.363438	0.221086	-0.695903	-0.253239	0.110556	-0.767091	-0.211594	0.109736	-0.711760	-0.197085	0.089934	-0.720955	
130	0.6500	-0.336758	1.498504	-0.556859	-0.281036	1.459551	-0.734337	-0.275261	1.471089	-0.390117	-0.227031	1.451926	-0.563491	-0.173510	1.069428	-0.480328	-0.178870	1.073371	-0.654170	-0.235706	1.118571	-0.428334	-0.234842	1.126756	-0.685766	-0.316988	1.095979	-0.490381	-0.319756	1.101737	-0.604938	-0.324830	1.105789	-0.548255	-0.247892	0.897676	-0.381979	-0.247281	0.835785	-0.377348	-0.176402	0.842573	-0.397084	-0.185553	0.902101	-0.399304	-0.301726	0.451972	-0.346971	-0.316507	0.411343	-0.348920	-0.258104	0.397610	-0.359100	-0.248270	0.436868	-0.361030	-0.386684	0.226038	-0.399591	-0.280910	0.105228	-0.341674	-0.249304	0.101725	-0.407199	-0.233761	0.081679	-0.399007	-0.286867	0.852824	-0.725402	-0.280322	0.793675	-0.726758	-0.210373	0.802533	-0.742709	-0.224398	0.862219	-0.741267	-0.319492	0.421826	-0.746496	-0.328407	0.382543	-0.742643	-0.266845	0.374597	-0.752031	-0.266202	0.418294	-0.755110	-0.362760	0.219474	-0.695857	-0.251498	0.109882	-0.766941	-0.210083	0.109142	-0.711456	-0.195313	0.089592	-0.720690	
131	0.6550	-0.336537	1.497060	-0.556800	-0.280970	1.458087	-0.734284	-0.275521	1.469400	-0.389991	-0.226854	1.450420	-0.563366	-0.173623	1.067789	-0.480154	-0.178897	1.071818	-0.653956	-0.235839	1.116993	-0.428317	-0.234790	1.125223	-0.685684	-0.317242	1.094238	-0.490339	-0.319933	1.100170	-0.604953	-0.325050	1.104125	-0.548235	-0.247842	0.895854	-0.382050	-0.247104	0.833944	-0.377524	-0.176274	0.840910	-0.397345	-0.185548	0.900429	-0.399457	-0.301453	0.450438	-0.347335	-0.316373	0.409841	-0.349335	-0.258051	0.395934	-0.359698	-0.248083	0.435149	-0.361664	-0.387398	0.224302	-0.400110	-0.280623	0.104315	-0.342211	-0.249064	0.100975	-0.407768	-0.233309	0.081176	-0.399517	-0.286311	0.850968	-0.725550	-0.279665	0.791833	-0.726801	-0.209637	0.800785	-0.742303	-0.223766	0.860440	-0.740996	-0.318573	0.420226	-0.746384	-0.327484	0.380954	-0.742534	-0.265886	0.373023	-0.751668	-0.265242	0.416717	-0.754778	-0.362028	0.217704	-0.695779	-0.249880	0.108841	-0.766672	-0.208756	0.108120	-0.710998	-0.193770	0.088796	-0.720262	
132	0.6600	-0.336312	1.495369	-0.556750	-0.280900	1.456402	-0.734220	-0.275797	1.467548	-0.389877	-0.226606	1.448674	-0.563252	-0.173747	1.065878	-0.480024	-0.178922	1.069998	-0.653755	-0.235928	1.115199	-0.428290	-0.234723	1.123432	-0.685616	-0.317453	1.092333	-0.490274	-0.320076	1.098411	-0.604934	-0.325246	1.102290	-0.548183	-0.247817	0.893754	-0.382153	-0.246945	0.831840	-0.377713	-0.176158	0.838987	-0.397601	-0.185559	0.898491	-0.399627	-0.301132	0.448631	-0.347676	-0.316193	0.408075	-0.349745	-0.257957	0.393990	-0.360317	-0.247858	0.433154	-0.362325	-0.388085	0.222299	-0.400604	-0.280285	0.103145	-0.342801	-0.248824	0.099969	-0.408399	-0.232854	0.080418	-0.400107	-0.285751	0.848852	-0.725718	-0.278993	0.789722	-0.726848	-0.208885	0.798790	-0.741902	-0.223135	0.858415	-0.740733	-0.317637	0.418382	-0.746243	-0.326541	0.379117	-0.742390	-0.264906	0.371202	-0.751280	-0.264268	0.414895	-0.754434	-0.361254	0.215780	-0.695665	-0.248394	0.107426	-0.766282	-0.207639	0.106660	-0.710388	-0.192482	0.087520	-0.719658	
133	0.6650	-0.336081	1.493430	-0.556709	-0.280824	1.454494	-0.734144	-0.276058	1.465444	-0.389791	-0.226417	1.446681	-0.563122	-0.173886	1.063695	-0.479932	-0.178950	1.067917	-0.653569	-0.235979	1.113184	-0.428255	-0.234648	1.121384	-0.685557	-0.317627	1.090263	-0.490186	-0.320199	1.096469	-0.604893	-0.325426	1.100287	-0.548113	-0.247808	0.891386	-0.382277	-0.246803	0.829476	-0.377904	-0.176055	0.836799	-0.397854	-0.185579	0.896287	-0.399812	-0.300763	0.446560	-0.347983	-0.315968	0.406029	-0.350163	-0.257819	0.391774	-0.360958	-0.247602	0.430897	-0.363004	-0.388741	0.220030	-0.401064	-0.279900	0.101723	-0.343445	-0.248594	0.098705	-0.409095	-0.232406	0.079397	-0.400778	-0.285184	0.846491	-0.725900	-0.278306	0.787377	-0.726904	-0.208122	0.796562	-0.741511	-0.222494	0.856161	-0.740493	-0.316681	0.416300	-0.746075	-0.325583	0.377033	-0.742210	-0.263913	0.369145	-0.750868	-0.263281	0.412826	-0.754064	-0.360461	0.213710	-0.695509	-0.247041	0.105656	-0.765779	-0.206724	0.104765	-0.709632	-0.191444	0.085781	-0.718909	
